<svg xmlns="http://www.w3.org/2000/svg" viewBox="0 0 422.23 183.41" xmlns:v="https://vecta.io/nano"><path d="M307.89 22.82h-2.38v-.65h5.52v.65h-2.39v6.57h-.75v-6.57zm10.64 3.36l.04-3.48h-.03c-.3 1.06-1.63 4.42-2.51 6.69h-.69l-2.37-6.7h-.03l.08 3.72v2.99h-.71v-7.23h1.1l2.31 6.32h.02c.17-.6 1.5-4.01 2.43-6.32h1.08v7.23h-.73v-3.21zM26.8 92.25L0 163.65h17.18l4.45-12.52H50.6l4.45 12.52h17.59l-26.9-71.4H26.8zm0 44.08l9.31-26.39 9.31 26.39H26.79zm85.89 26.8H96.24c-2.79 0-4.76-1.55-4.76-3.93 0-1.55.83-3 2.38-4.04 2.48.72 5.07 1.03 7.76 1.03 14.28 0 25.04-9.93 25.04-23.28 0-5.07-1.55-9.52-4.14-13.24.52-1.97 2.48-3.21 4.97-3.21h3.72v-13.97h-4.45c-7.24 0-12.52 3.62-14.07 9.31a29.43 29.43 0 0 0-11.07-2.17c-14.28 0-24.94 9.93-24.94 23.28 0 6.52 2.59 12.31 6.93 16.45-4.45 2.69-7.24 8.07-7.24 13.66 0 8.8 6.73 14.69 16.97 14.69h16.45c4.24 0 7.14 2.28 7.55 5.69l15.52-4.24c-1.97-10.14-9.52-16.04-20.18-16.04zm-11.07-39.22c5.38 0 9.52 3.83 9.52 9s-4.14 9-9.52 9-9.42-3.83-9.42-9 3.93-9 9.42-9zm51.02-7.03v-6h-15.11v52.77h15.11v-24.63c0-8.17 5.07-13.45 14.28-13.45h2.28v-15.52h-2.28c-5.69 0-10.55 2.48-14.28 6.83zm31.46-14.39c-5.28 0-9.31 3.93-9.31 9.21s4.04 9.31 9.31 9.31 9.42-3.93 9.42-9.31-4.04-9.21-9.42-9.21zm-7.55 25.06h15.11v36.09h-15.11z" fill="#0cbc3d"/><path d="M267.51 163.65l18.52-52.78h-16.45l-9.73 33.22-9.93-33.22H234.6l-9.93 33.12-9.73-33.12h-16.86l18.52 52.78h15.52l9.93-34.05 9.94 34.05h15.52zm25.05-36.1h15.11v36.09h-15.11zm7.56-25.06c-5.28 0-9.31 3.93-9.31 9.21s4.04 9.31 9.31 9.31 9.42-3.93 9.42-9.31-4.04-9.21-9.42-9.21zm17.18 24.11c0 12.42 11.07 14.9 19.45 16.76 5.38 1.24 9.42 2.28 9.42 5.28 0 2.79-3.42 4.24-8.38 4.24-6.1 0-11.07-2.28-15.11-5.69l-7.04 9.73c5.17 4.24 12.62 7.97 22.66 7.97 12.83 0 22.97-6.1 22.97-17.69 0-12.31-11.18-14.9-19.45-16.66-5.38-1.14-9.42-2.07-9.42-5.07 0-2.69 3.31-3.83 7.35-3.83 5.17 0 9.52 1.97 13.45 4.66l7.04-9.73c-4.97-3.62-11.69-6.93-21.01-6.93-12 0-21.94 5.59-21.94 16.97zm104.93 10.87c0-16.04-11.9-27.83-27.73-27.83s-28.14 11.8-28.14 27.32 12.62 27.94 29.39 27.94c9.73 0 18.21-3.93 23.8-10.24l-10.14-8.79c-2.48 3.1-7.24 5.9-13.24 5.9-6.62 0-11.69-3.62-13.55-9.52h39.32c.21-1.34.31-3.31.31-4.76zm-39.73-5.28c1.55-5.79 6.1-9.52 11.8-9.52s10.24 3.62 11.9 9.52h-23.7z" fill="#0a4418"/><path d="M213.35 93.19h.02a30.94 30.94 0 0 0 2.47-1.35c8.67-5.26 12.09-13.74 14.91-23.04 1.33-4.39 2.84-8.78 4.54-13.05 1.34-3.36 2.89-6.88 5.96-9.7 2.37-2.17 5.29-4 8.93-5.59.71-.31 1.42-.6 2.14-.86-3.37 2.25-6.56 4.94-9.09 7.74-3.42 3.76-5.91 8.41-7.18 13.43-.4 1.57-.43 2.57-.31 5.18 0 .15.08.29.19.39a.51.51 0 0 0 .41.13c8.51-.92 17.67-4.76 21.8-9.13 2.42-2.56 3.85-5.63 5.11-8.55l.94-2.2c1.63-3.85 3.31-7.82 5.58-11.21.62-.93 1.29-1.7 2.03-2.35.53-.46 1.93-1.63 2.24-1.85a.6.6 0 0 0 .3-.27c.12-.24.05-.54-.17-.69-.11-.08-.2-.14-.32-.13-3.8-1.23-4.59-1.36-6.27-1.64l-.49-.08c-12.69-2.14-24.26.79-32.57 8.25-4.6 4.13-7.5 10.2-8.37 17.55-.27 2.31-.28 4.62-.29 6.85 0 2.72-.02 5.51-.51 8.41a27.69 27.69 0 0 0-.35-3.31 25.71 25.71 0 0 0-2.66-7.78c-3.79-7.11-9.85-10.13-18.55-9.24-.26.03-.46.23-.49.49-.42 3.86 1.77 10.7 2.4 12.19.17.41 4.32 10.08 13.04 12.54.15.04.31.02.44-.07.13-.08.22-.22.25-.37.84-5.07-3.48-12.19-6.27-16.15 2.8 2.37 6.29 6.86 8.12 13.15a14.38 14.38 0 0 1 .47 5.46c-.51 4.86-3.32 9.07-7.36 11.77-6.36 4.23-13.66 5.67-20.87 5.88-1.21.03-2.42.02-3.63.02-16.96-.17-28.35-11.56-28.35-28.34 0-15.62 12.71-28.34 28.34-28.34a28.37 28.37 0 0 1 4.88.42c.58.1 1.17-.08 1.6-.49.42-.41.62-1 .53-1.58a18.38 18.38 0 0 1-.19-2.68c0-10.15 8.26-18.41 18.41-18.41 6.43 0 12.29 3.27 15.67 8.74a1.84 1.84 0 0 0 1.77.86 1.83 1.83 0 0 0 1.53-1.23C238.73 9.22 251.61 0 266.12 0c18.67 0 33.86 15.19 33.86 33.86a32.75 32.75 0 0 1-.09 2.44 1.84 1.84 0 0 0 1.38 1.91c12.61 3.22 21.4 14.62 21.3 27.68-.12 15.62-13.05 28.12-28.66 28.12h-33.34l-2.53-.09h0-.17c-1.44-.03-2.82-.03-4.14 0h-40.2c-.4 0-.52-.54-.16-.71z" fill="#0cbc3d"/></svg>