<svg xmlns="http://www.w3.org/2000/svg" viewBox="0 0 306.9 54.48" xmlns:v="https://vecta.io/nano"><path d="M69.84 9.27h-1.11v-.31h2.58v.31h-1.12v3.07h-.35V9.27zm4.97 1.56l.02-1.62h-.02c-.14.5-.76 2.06-1.17 3.13h-.32l-1.11-3.13h-.01l.04 1.74v1.4h-.33V8.98h.52l1.08 2.95h0c.08-.28.7-1.87 1.14-2.95h.5v3.37h-.34v-1.5zm22.33-4.71L82.92 43.99h9.11l2.36-6.64h15.37l2.36 6.64h9.33L107.18 6.12H97.13zm0 23.38l4.94-14 4.94 14h-9.88zm45.56 14.22h-8.73c-1.48 0-2.53-.82-2.53-2.09 0-.82.44-1.59 1.26-2.14 1.32.38 2.69.55 4.12.55 7.57 0 13.28-5.27 13.28-12.35 0-2.69-.82-5.05-2.2-7.03.27-1.04 1.32-1.7 2.63-1.7h1.98v-7.41h-2.36c-3.84 0-6.64 1.92-7.47 4.94-1.76-.71-3.73-1.15-5.87-1.15-7.58 0-13.23 5.27-13.23 12.35 0 3.46 1.37 6.53 3.68 8.73-2.36 1.43-3.84 4.28-3.84 7.25 0 4.67 3.57 7.79 9 7.79h8.73c2.25 0 3.79 1.21 4.01 3.02l8.23-2.25c-1.04-5.38-5.05-8.51-10.7-8.51zm-5.87-20.8c2.85 0 5.05 2.03 5.05 4.78s-2.2 4.78-5.05 4.78-5-2.03-5-4.78 2.09-4.78 5-4.78zm27.06-3.74V16h-8.01v27.99h8.01V30.93c0-4.34 2.69-7.14 7.58-7.14h1.21v-8.23h-1.21c-3.02 0-5.6 1.32-7.58 3.62zm16.69-8.53c-2.8 0-4.94 2.09-4.94 4.89s2.14 4.94 4.94 4.94 5-2.09 5-4.94-2.14-4.89-5-4.89zm-4 13.51h8.01v19.83h-8.01z" fill="#0cbc3d"/><path d="M224.83 43.99L234.65 16h-8.72l-5.16 17.62L215.5 16h-8.13l-5.27 17.56L196.94 16H188l9.82 27.99h8.24l5.26-18.05 5.27 18.05h8.24zm13.29-19.83h8.01v19.83h-8.01zm4.01-3.69c2.85 0 4.99-2.09 4.99-4.94s-2.14-4.89-4.99-4.89-4.94 2.09-4.94 4.89 2.14 4.94 4.94 4.94zm19.98 17.82c-3.24 0-5.87-1.21-8.01-3.02l-3.73 5.16c2.74 2.25 6.7 4.23 12.02 4.23 6.81 0 12.19-3.24 12.19-9.39 0-6.53-5.93-7.9-10.32-8.84-2.85-.6-4.99-1.1-4.99-2.69 0-1.43 1.76-2.03 3.9-2.03 2.74 0 5.05 1.04 7.14 2.47l3.73-5.16c-2.63-1.92-6.2-3.68-11.14-3.68-6.37 0-11.64 2.96-11.64 9 0 6.59 5.87 7.9 10.32 8.89 2.85.66 4.99 1.21 4.99 2.8 0 1.48-1.81 2.25-4.45 2.25zm44.79-8.18c0-8.51-6.31-14.77-14.71-14.77s-14.93 6.26-14.93 14.49 6.7 14.82 15.59 14.82c5.16 0 9.66-2.09 12.62-5.43l-5.38-4.67c-1.32 1.65-3.84 3.13-7.03 3.13-3.51 0-6.2-1.92-7.19-5.05h20.86c.11-.71.17-1.76.17-2.53zm-21.08-2.8c.82-3.07 3.24-5.05 6.26-5.05s5.43 1.92 6.31 5.05h-12.57z" fill="#0a4418"/><path d="M13.26 17.47a13.24 13.24 0 0 1 2.28.2c.27.05.55-.04.75-.23a.85.85 0 0 0 .25-.74 8.69 8.69 0 0 1-.09-1.26 8.63 8.63 0 0 1 8.62-8.62 8.56 8.56 0 0 1 7.33 4.09.86.86 0 0 0 .83.4c.33-.04.61-.26.72-.58A15.84 15.84 0 0 1 48.95 0C57.69 0 64.8 7.11 64.8 15.85c0 .38-.01.77-.04 1.14-.03.42.24.79.64.89a13.25 13.25 0 0 1 9.97 12.95c-.06 7.31-6.11 13.16-13.42 13.16h-15.6c-.4-.02-.8-.03-1.18-.04h0-.08c-.67-.01-1.32-.01-1.94 0H24.33c-.19 0-.24-.25-.08-.33.4-.19.78-.41 1.16-.63 4.06-2.46 5.66-6.43 6.98-10.78.62-2.05 1.33-4.11 2.12-6.11.62-1.57 1.35-3.22 2.79-4.54 1.11-1.02 2.48-1.87 4.18-2.62.33-.14.66-.28 1-.4-1.58 1.05-3.07 2.31-4.26 3.62-1.6 1.76-2.76 3.93-3.36 6.29-.19.73-.2 1.2-.15 2.43 0 .07.04.14.09.18.05.05.12.07.19.06 3.98-.43 8.27-2.23 10.2-4.27 1.13-1.2 1.8-2.64 2.39-4l.44-1.03c.76-1.8 1.55-3.66 2.61-5.25.29-.44.6-.8.95-1.1.25-.22.9-.76 1.05-.87.06-.02.11-.06.14-.12.06-.11.02-.25-.08-.32-.05-.04-.09-.07-.15-.06-1.78-.58-2.15-.64-2.94-.77l-.23-.04c-5.94-1-11.35.37-15.24 3.86-2.15 1.94-3.51 4.77-3.92 8.21-.13 1.08-.13 2.16-.13 3.21 0 1.28 0 2.58-.24 3.94-.02-.52-.08-1.04-.16-1.55a12.09 12.09 0 0 0-1.25-3.64c-1.77-3.33-4.61-4.74-8.68-4.32-.12.01-.22.11-.23.23-.2 1.81.83 5.01 1.12 5.71.08.19 2.02 4.72 6.1 5.87.07.02.15 0 .21-.03.06-.04.1-.1.12-.17.39-2.37-1.63-5.71-2.94-7.56 1.31 1.11 2.94 3.21 3.8 6.15.24.83.31 1.7.22 2.56-.24 2.28-1.55 4.25-3.45 5.51-2.97 1.98-6.39 2.66-9.77 2.75-.57.02-1.13 0-1.7 0C5.33 43.91 0 38.58 0 30.73a13.28 13.28 0 0 1 13.26-13.26z" fill="#0cbc3d"/></svg>